<svg width="250" height="139" viewBox="0 0 250 139" fill="none" xmlns="http://www.w3.org/2000/svg">
<path d="M243.549 124.923C242.127 124.923 240.948 124.496 240.013 123.643C239.119 122.789 238.672 121.732 238.672 120.472C238.672 119.009 239.2 117.79 240.257 116.814C241.314 115.798 242.635 115.29 244.22 115.29C245.683 115.29 246.862 115.717 247.756 116.57C248.691 117.424 249.158 118.501 249.158 119.802C249.158 121.224 248.61 122.444 247.512 123.46C246.455 124.435 245.134 124.923 243.549 124.923Z" fill="white"/>
<path d="M224.804 108.401L226.084 103.767C226.856 100.962 226.938 98.8692 226.328 97.4873C225.718 96.1054 224.418 95.4144 222.426 95.4144C220.678 95.4144 219.073 95.9834 217.61 97.1215C216.146 98.2596 214.785 100.048 213.525 102.487L213.22 101.084C214.724 97.9141 216.532 95.577 218.646 94.0731C220.76 92.5286 223.158 91.7563 225.84 91.7563C229.254 91.7563 231.632 92.8944 232.973 95.1705C234.355 97.406 234.498 100.475 233.4 104.377L232.242 108.401H224.804ZM205.599 108.401L207.733 100.841C208.18 99.1334 208.241 97.8125 207.916 96.8776C207.631 95.9022 206.92 95.4144 205.782 95.4144C204.888 95.4144 204.054 95.7599 203.282 96.4509C202.51 97.1012 201.758 98.097 201.026 99.4383L199.868 101.694H197.49L198.892 98.9505C199.705 97.4467 200.579 96.1663 201.514 95.1096C202.449 94.0528 203.506 93.2399 204.684 92.6709C205.863 92.0612 207.184 91.7563 208.647 91.7563C210.558 91.7563 212.062 92.2034 213.159 93.0976C214.256 93.9512 214.927 95.1705 215.171 96.7557C215.455 98.3409 215.293 100.211 214.683 102.365L213.037 108.401H205.599ZM201.148 124.069L205.599 108.401H213.037L208.647 124.069H201.148ZM230.108 115.961C229.661 117.586 229.58 118.887 229.864 119.862C230.189 120.838 230.921 121.326 232.059 121.326C232.953 121.326 233.786 121.001 234.559 120.35C235.331 119.659 236.062 118.663 236.753 117.363L237.973 115.107H240.351L238.887 117.851C238.115 119.314 237.241 120.594 236.266 121.692C235.331 122.748 234.274 123.561 233.095 124.13C231.957 124.699 230.657 124.984 229.193 124.984C227.283 124.984 225.759 124.557 224.621 123.703C223.523 122.809 222.853 121.57 222.609 119.984C222.365 118.359 222.528 116.489 223.097 114.375L224.804 108.401H232.242L230.108 115.961Z" fill="white"/>
<path d="M174.081 138.641C171.357 138.641 168.959 138.336 166.886 137.726C164.854 137.116 163.269 136.263 162.131 135.165C160.993 134.068 160.424 132.788 160.424 131.324C160.424 129.577 161.237 127.91 162.863 126.325C164.529 124.781 166.907 123.439 169.996 122.301L171.215 123.155C169.874 123.968 168.817 124.963 168.045 126.142C167.313 127.321 166.947 128.54 166.947 129.8C166.947 131.711 167.76 133.235 169.386 134.373C171.053 135.511 173.268 136.08 176.032 136.08C177.983 136.08 179.69 135.755 181.153 135.104C182.657 134.454 183.835 133.54 184.689 132.361C185.543 131.182 185.969 129.861 185.969 128.398C185.969 126.975 185.543 125.919 184.689 125.228C183.835 124.577 182.514 124.252 180.726 124.252H174.873C172.76 124.252 171.073 123.825 169.813 122.972C168.594 122.078 167.984 120.879 167.984 119.375C167.984 118.074 168.472 116.794 169.447 115.534C170.423 114.233 171.906 112.851 173.898 111.388L174.934 112.12C174.121 112.851 173.532 113.502 173.166 114.071C172.841 114.599 172.678 115.127 172.678 115.656C172.678 116.347 172.963 116.875 173.532 117.241C174.142 117.607 175.076 117.79 176.336 117.79H182.86C185.786 117.79 188.063 118.481 189.688 119.862C191.314 121.244 192.127 123.175 192.127 125.654C192.127 128.174 191.355 130.41 189.81 132.361C188.266 134.312 186.132 135.836 183.409 136.933C180.685 138.072 177.576 138.641 174.081 138.641ZM177.983 113.034C174.894 113.034 172.455 112.221 170.666 110.595C168.919 108.929 168.045 106.673 168.045 103.828C168.045 101.511 168.594 99.4586 169.691 97.6702C170.829 95.8412 172.374 94.3983 174.324 93.3415C176.275 92.2847 178.491 91.7563 180.97 91.7563C184.018 91.7563 186.416 92.5896 188.164 94.256C189.953 95.9225 190.847 98.1986 190.847 101.084C190.847 103.361 190.278 105.413 189.14 107.242C188.042 109.031 186.518 110.453 184.567 111.51C182.657 112.526 180.462 113.034 177.983 113.034ZM178.104 110.656C178.999 110.656 179.832 110.372 180.604 109.803C181.376 109.193 182.047 108.38 182.616 107.364C183.226 106.307 183.693 105.129 184.018 103.828C184.344 102.487 184.506 101.105 184.506 99.6822C184.506 97.8531 184.181 96.4712 183.531 95.5363C182.921 94.6015 182.006 94.1341 180.787 94.1341C179.893 94.1341 179.06 94.4186 178.287 94.9876C177.515 95.5567 176.824 96.3289 176.214 97.3044C175.645 98.2799 175.198 99.418 174.873 100.719C174.548 102.019 174.385 103.401 174.385 104.864C174.385 106.775 174.711 108.218 175.361 109.193C176.011 110.169 176.926 110.656 178.104 110.656ZM197.004 100.841C196.273 100.841 195.684 100.658 195.236 100.292C194.83 99.8854 194.627 99.3367 194.627 98.6457C194.627 98.1986 194.708 97.7718 194.871 97.3654C195.074 96.9589 195.257 96.5728 195.419 96.207C195.623 95.8412 195.724 95.516 195.724 95.2315C195.724 94.8657 195.582 94.6015 195.297 94.4389C195.054 94.2763 194.647 94.1951 194.078 94.1951C193.224 94.1951 192.351 94.3983 191.456 94.8047C190.603 95.2112 189.77 95.8005 188.957 96.5728L188.225 95.5363C189.241 94.317 190.359 93.3822 191.578 92.7318C192.798 92.0815 194.098 91.7563 195.48 91.7563C197.106 91.7563 198.386 92.1831 199.321 93.0367C200.297 93.8496 200.784 94.947 200.784 96.3289C200.784 97.6296 200.419 98.7067 199.687 99.5602C198.955 100.414 198.061 100.841 197.004 100.841Z" fill="white"/>
<path d="M155.651 116.083C155.082 117.708 154.899 118.989 155.102 119.924C155.305 120.858 155.976 121.326 157.114 121.326C158.008 121.326 158.841 121.001 159.613 120.35C160.386 119.659 161.138 118.643 161.869 117.302L163.028 115.107H165.405L163.942 117.79C163.17 119.294 162.316 120.594 161.382 121.692C160.447 122.748 159.39 123.561 158.211 124.13C157.073 124.699 155.752 124.984 154.248 124.984C152.338 124.984 150.854 124.557 149.798 123.704C148.741 122.809 148.111 121.59 147.908 120.046C147.745 118.46 148.009 116.631 148.7 114.558L153.273 100.658C153.842 99.032 154.004 97.7517 153.761 96.8168C153.557 95.882 152.887 95.4146 151.749 95.4146C150.895 95.4146 150.062 95.76 149.249 96.451C148.477 97.1013 147.745 98.0971 147.054 99.4384L145.835 101.694H143.457L144.92 98.9507C145.733 97.4468 146.607 96.1665 147.542 95.1097C148.477 94.053 149.533 93.24 150.712 92.671C151.891 92.0613 153.192 91.7565 154.614 91.7565C156.565 91.7565 158.069 92.2036 159.126 93.0978C160.183 93.9513 160.792 95.1707 160.955 96.7559C161.158 98.3004 160.914 100.109 160.223 102.182L155.651 116.083ZM159.309 86.0255C157.967 86.0255 156.87 85.6191 156.016 84.8062C155.163 83.9933 154.736 82.9771 154.736 81.7578C154.736 80.3759 155.244 79.2175 156.26 78.2826C157.317 77.3478 158.577 76.8804 160.04 76.8804C161.341 76.8804 162.418 77.2868 163.272 78.0997C164.166 78.872 164.613 79.8881 164.613 81.1481C164.613 82.4894 164.084 83.6478 163.028 84.6233C162.012 85.5581 160.772 86.0255 159.309 86.0255Z" fill="white"/>
<path d="M126.749 124.923C124.351 124.923 122.218 124.598 120.348 123.947C118.478 123.256 117.015 122.322 115.958 121.143C114.901 119.964 114.373 118.623 114.373 117.119C114.373 115.818 114.739 114.782 115.47 114.01C116.202 113.237 117.157 112.851 118.336 112.851C119.393 112.851 120.206 113.156 120.775 113.766C121.384 114.335 121.709 115.168 121.75 116.265C121.75 116.875 121.689 117.505 121.567 118.155C121.445 118.806 121.384 119.354 121.384 119.802C121.466 120.777 121.913 121.488 122.726 121.935C123.579 122.382 124.819 122.606 126.445 122.606C128.639 122.606 130.347 122.159 131.566 121.265C132.785 120.371 133.395 119.151 133.395 117.607C133.395 116.428 133.07 115.412 132.419 114.558C131.81 113.664 130.997 112.851 129.981 112.12C129.005 111.347 127.949 110.595 126.81 109.864C125.713 109.092 124.656 108.299 123.64 107.486C122.665 106.632 121.852 105.677 121.201 104.621C120.592 103.523 120.287 102.243 120.287 100.78C120.287 98.097 121.425 95.9225 123.701 94.256C126.018 92.5896 128.985 91.7563 132.602 91.7563C134.838 91.7563 136.809 92.0815 138.516 92.7318C140.264 93.3415 141.626 94.1951 142.601 95.2925C143.617 96.3492 144.125 97.5686 144.125 98.9505C144.125 100.089 143.8 101.023 143.15 101.755C142.499 102.446 141.626 102.792 140.528 102.792C139.593 102.792 138.821 102.527 138.211 101.999C137.642 101.471 137.338 100.759 137.297 99.8651C137.297 99.296 137.358 98.7067 137.48 98.097C137.602 97.4873 137.663 96.9996 137.663 96.6338C137.622 95.7802 137.195 95.1502 136.382 94.7438C135.61 94.2967 134.513 94.0731 133.09 94.0731C131.261 94.0731 129.818 94.4593 128.761 95.2315C127.745 96.0038 127.237 97.0605 127.237 98.4018C127.237 99.5399 127.542 100.536 128.152 101.389C128.802 102.243 129.615 103.056 130.59 103.828C131.607 104.56 132.663 105.312 133.761 106.084C134.899 106.856 135.956 107.669 136.931 108.522C137.947 109.376 138.76 110.352 139.37 111.449C140.02 112.546 140.345 113.827 140.345 115.29C140.345 117.2 139.756 118.887 138.577 120.35C137.439 121.773 135.834 122.891 133.761 123.703C131.729 124.516 129.391 124.923 126.749 124.923Z" fill="white"/>
<path d="M99.6652 124.923C96.2103 124.923 93.5278 123.886 91.6174 121.813C89.7071 119.7 88.752 116.773 88.752 113.034C88.752 110.189 89.26 107.506 90.2761 104.986C91.2923 102.426 92.6945 100.15 94.4829 98.158C96.2713 96.1663 98.3239 94.6015 100.641 93.4634C102.957 92.3254 105.396 91.7563 107.957 91.7563C110.396 91.7563 112.265 92.2847 113.566 93.3415C114.866 94.3576 115.517 95.8412 115.517 97.7922C115.517 99.987 114.704 102.08 113.078 104.072C111.452 106.023 109.136 107.771 106.128 109.315C103.161 110.819 99.6449 111.998 95.5803 112.851V110.961C98.5068 110.026 100.986 108.868 103.018 107.486C105.091 106.104 106.656 104.58 107.713 102.913C108.81 101.206 109.359 99.4383 109.359 97.6092C109.359 96.4305 109.136 95.5567 108.688 94.9876C108.241 94.378 107.611 94.0731 106.798 94.0731C105.579 94.0731 104.339 94.6218 103.079 95.7192C101.86 96.776 100.742 98.1986 99.7261 99.987C98.71 101.775 97.8768 103.747 97.2265 105.901C96.6168 108.055 96.312 110.209 96.312 112.363C96.312 115.249 96.8403 117.444 97.8971 118.948C98.9945 120.452 100.559 121.204 102.592 121.204C104.217 121.204 105.701 120.736 107.042 119.802C108.424 118.867 109.644 117.424 110.7 115.473H112.956C111.493 118.562 109.644 120.919 107.408 122.545C105.173 124.13 102.592 124.923 99.6652 124.923Z" fill="white"/>
<path d="M47.2835 123.887C46.0235 123.887 44.7228 123.907 43.3815 123.948C42.0403 123.948 40.7599 123.968 39.5406 124.008C38.3619 124.008 37.3457 124.029 36.4922 124.069L37.1628 121.692L39.4186 121.509C40.7599 121.346 41.7964 121.123 42.528 120.838C43.3003 120.513 43.8896 120.025 44.2961 119.375C44.7432 118.684 45.1496 117.708 45.5154 116.448L53.3193 88.5253C53.6444 87.2653 53.7867 86.3101 53.7461 85.6598C53.7461 84.9688 53.4615 84.4607 52.8925 84.1356C52.3641 83.8104 51.4496 83.5869 50.149 83.4649L47.8932 83.282L48.5638 80.9043C49.3767 80.9043 50.3522 80.9246 51.4903 80.9653C52.669 81.0059 53.9493 81.0262 55.3312 81.0262C56.7132 81.0262 58.0544 81.0262 59.3551 81.0262L59.8428 81.0872C60.8183 81.0466 61.7125 81.0262 62.5254 81.0262C63.379 81.0262 64.1309 81.0059 64.7812 80.9653C65.4722 80.9246 66.0412 80.9043 66.4883 80.9043C72.8696 80.9043 77.808 82.4895 81.3035 85.6598C84.8396 88.8301 86.6077 93.2401 86.6077 98.8898C86.6077 102.588 85.8761 105.982 84.4128 109.071C82.9903 112.16 80.9377 114.823 78.2551 117.058C75.6132 119.294 72.4632 121.021 68.8051 122.24C65.147 123.46 61.1232 124.069 56.7335 124.069C55.8799 124.069 54.9857 124.049 54.0509 124.008C53.1161 123.968 52.1203 123.948 51.0635 123.948C50.0067 123.907 48.8077 123.887 47.4664 123.887H47.2835ZM57.4651 121.814C60.4322 121.814 63.1757 121.224 65.6957 120.046C68.2564 118.867 70.4715 117.221 72.3412 115.107C74.2109 112.994 75.6538 110.514 76.6699 107.669C77.6861 104.824 78.1941 101.735 78.1941 98.402C78.1941 93.5653 77.0967 89.8259 74.9019 87.184C72.707 84.542 69.5773 83.2211 65.5128 83.2211H62.8302L53.5022 116.57C52.9332 118.643 52.9128 120.046 53.4412 120.777C54.0103 121.468 55.3515 121.814 57.4651 121.814Z" fill="white"/>
<path d="M232.816 50.3456L234.156 47.7752L234.847 47.6024C234.775 47.7608 234.681 47.8904 234.566 47.9912C234.465 48.092 234.336 48.1424 234.177 48.1424C233.875 48.1424 233.594 48.02 233.335 47.7752C233.09 47.516 232.968 47.1992 232.968 46.8248C232.968 46.4072 233.104 46.0616 233.378 45.788C233.652 45.5 233.997 45.356 234.415 45.356C234.789 45.356 235.12 45.5 235.408 45.788C235.696 46.0616 235.84 46.4072 235.84 46.8248C235.84 46.9832 235.804 47.1776 235.732 47.408C235.675 47.624 235.552 47.9048 235.365 48.2504L233.94 50.9504L232.816 50.3456Z" fill="white"/>
<path d="M214.662 47.9692V37.7092H216.606V47.9692H214.662ZM221.596 47.9692V41.77C221.596 41.0068 221.358 40.4092 220.883 39.9772C220.422 39.5308 219.839 39.3076 219.133 39.3076C218.658 39.3076 218.233 39.4084 217.859 39.61C217.485 39.8116 217.182 40.0924 216.952 40.4524C216.721 40.8124 216.606 41.2444 216.606 41.7484L215.807 41.3596C215.807 40.582 215.973 39.9052 216.304 39.3292C216.649 38.7532 217.117 38.3068 217.708 37.99C218.298 37.6588 218.961 37.4932 219.695 37.4932C220.415 37.4932 221.063 37.6516 221.639 37.9684C222.229 38.2852 222.69 38.7316 223.021 39.3076C223.367 39.8836 223.54 40.5676 223.54 41.3596V47.9692H221.596ZM228.529 47.9692V41.77C228.529 41.0068 228.292 40.4092 227.817 39.9772C227.356 39.5308 226.78 39.3076 226.089 39.3076C225.613 39.3076 225.181 39.4084 224.793 39.61C224.418 39.8116 224.116 40.0924 223.885 40.4524C223.655 40.8124 223.54 41.2444 223.54 41.7484L222.438 41.3596C222.481 40.5676 222.69 39.8908 223.065 39.3292C223.453 38.7532 223.95 38.3068 224.555 37.99C225.16 37.6588 225.822 37.4932 226.542 37.4932C227.291 37.4932 227.961 37.6516 228.551 37.9684C229.141 38.2852 229.609 38.7316 229.955 39.3076C230.315 39.8836 230.495 40.5748 230.495 41.3812V47.9692H228.529Z" fill="white"/>
<path d="M206.381 47.9692V37.7092H208.325V47.9692H206.381ZM208.325 42.1156L207.59 41.7916C207.59 40.4812 207.893 39.4372 208.498 38.6596C209.102 37.882 209.974 37.4932 211.111 37.4932C211.63 37.4932 212.098 37.5868 212.515 37.774C212.933 37.9468 213.322 38.242 213.682 38.6596L212.407 39.9772C212.191 39.7468 211.954 39.5812 211.694 39.4804C211.435 39.3796 211.133 39.3292 210.787 39.3292C210.067 39.3292 209.477 39.5596 209.016 40.0204C208.555 40.4812 208.325 41.1796 208.325 42.1156Z" fill="white"/>
<path d="M199.267 48.1852C198.259 48.1852 197.352 47.9476 196.545 47.4724C195.739 46.9972 195.098 46.3564 194.623 45.55C194.148 44.7292 193.91 43.8148 193.91 42.8068C193.91 41.8132 194.148 40.9204 194.623 40.1284C195.098 39.322 195.739 38.6812 196.545 38.206C197.352 37.7308 198.259 37.4932 199.267 37.4932C200.261 37.4932 201.161 37.7308 201.967 38.206C202.788 38.6668 203.436 39.3004 203.911 40.1068C204.386 40.9132 204.624 41.8132 204.624 42.8068C204.624 43.8148 204.386 44.7292 203.911 45.55C203.436 46.3564 202.788 46.9972 201.967 47.4724C201.161 47.9476 200.261 48.1852 199.267 48.1852ZM199.267 46.306C199.915 46.306 200.491 46.1548 200.995 45.8524C201.499 45.55 201.895 45.1396 202.183 44.6212C202.471 44.0884 202.615 43.4836 202.615 42.8068C202.615 42.1444 202.464 41.554 202.161 41.0356C201.873 40.5172 201.477 40.114 200.973 39.826C200.484 39.5236 199.915 39.3724 199.267 39.3724C198.619 39.3724 198.043 39.5236 197.539 39.826C197.035 40.114 196.639 40.5172 196.351 41.0356C196.063 41.554 195.919 42.1444 195.919 42.8068C195.919 43.4836 196.063 44.0884 196.351 44.6212C196.639 45.1396 197.035 45.55 197.539 45.8524C198.043 46.1548 198.619 46.306 199.267 46.306Z" fill="white"/>
<path d="M183.545 47.9694V32.979H185.575V47.9694H183.545ZM184.927 41.3814V39.5238H192.747V41.3814H184.927ZM184.927 34.8366V32.979H193.114V34.8366H184.927Z" fill="white"/>
<path d="M174.994 47.9692V41.986C174.994 41.2084 174.749 40.5676 174.26 40.0636C173.77 39.5596 173.136 39.3076 172.359 39.3076C171.84 39.3076 171.38 39.4228 170.976 39.6532C170.573 39.8836 170.256 40.2004 170.026 40.6036C169.796 41.0068 169.68 41.4676 169.68 41.986L168.881 41.5324C168.881 40.7548 169.054 40.0636 169.4 39.4588C169.745 38.854 170.228 38.3788 170.847 38.0332C171.466 37.6732 172.164 37.4932 172.942 37.4932C173.72 37.4932 174.404 37.6876 174.994 38.0764C175.599 38.4652 176.074 38.9764 176.42 39.61C176.765 40.2292 176.938 40.8916 176.938 41.5972V47.9692H174.994ZM167.736 47.9692V37.7092H169.68V47.9692H167.736Z" fill="white"/>
<path d="M163.359 47.9693V37.7093H165.303V47.9693H163.359ZM164.331 35.6573C163.971 35.6573 163.676 35.5421 163.445 35.3117C163.215 35.0669 163.1 34.7645 163.1 34.4045C163.1 34.0589 163.215 33.7709 163.445 33.5405C163.676 33.2957 163.971 33.1733 164.331 33.1733C164.691 33.1733 164.986 33.2957 165.216 33.5405C165.447 33.7709 165.562 34.0589 165.562 34.4045C165.562 34.7645 165.447 35.0669 165.216 35.3117C164.986 35.5421 164.691 35.6573 164.331 35.6573Z" fill="white"/>
<path d="M143.31 32.8004L145.444 25.2404C145.891 23.5333 145.952 22.2124 145.627 21.2775C145.342 20.3021 144.631 19.8143 143.493 19.8143C142.599 19.8143 141.765 20.1598 140.993 20.8508C140.221 21.5011 139.469 22.4969 138.737 23.8382L137.579 26.094H135.201L136.603 23.3504C137.416 21.8466 138.29 20.5662 139.225 19.5095C140.16 18.4527 141.217 17.6398 142.395 17.0708C143.574 16.4611 144.895 16.1562 146.358 16.1562C148.269 16.1562 149.772 16.6033 150.87 17.4975C151.967 18.3511 152.638 19.5704 152.882 21.1556C153.166 22.7408 153.004 24.6104 152.394 26.7646L150.748 32.8004H143.31ZM138.859 48.4692L143.31 32.8004H150.748L146.358 48.4692H138.859ZM161.356 28.6546C160.543 28.6546 159.913 28.4311 159.466 27.984C159.019 27.4962 158.796 26.8866 158.796 26.155C158.796 25.464 158.958 24.7933 159.283 24.143C159.609 23.4927 159.934 22.883 160.259 22.314C160.584 21.745 160.747 21.2166 160.747 20.7288C160.747 19.9566 160.218 19.5704 159.161 19.5704C158.064 19.5704 156.885 20.0175 155.625 20.9117C154.365 21.8059 153.309 23.005 152.455 24.5088L152.15 22.9237C153.37 20.7695 154.812 19.103 156.479 17.9243C158.186 16.7456 159.995 16.1562 161.905 16.1562C163.531 16.1562 164.791 16.583 165.685 17.4366C166.62 18.2901 167.087 19.5095 167.087 21.0946C167.087 22.3546 166.803 23.574 166.234 24.7527C165.705 25.9314 165.014 26.8866 164.161 27.6182C163.307 28.3092 162.372 28.6546 161.356 28.6546Z" fill="white"/>
<path d="M119.597 49.3227C116.142 49.3227 113.459 48.2862 111.549 46.2133C109.639 44.0998 108.684 41.1733 108.684 37.434C108.684 34.5888 109.192 31.9062 110.208 29.3862C111.224 26.8256 112.626 24.5495 114.415 22.5579C116.203 20.5662 118.256 19.0014 120.572 17.8633C122.889 16.7253 125.328 16.1562 127.888 16.1562C130.327 16.1562 132.197 16.6846 133.497 17.7414C134.798 18.7575 135.448 20.2411 135.448 22.1921C135.448 24.3869 134.636 26.4801 133.01 28.4717C131.384 30.4227 129.067 32.1704 126.059 33.715C123.092 35.2188 119.576 36.3975 115.512 37.2511V35.3611C118.438 34.4262 120.918 33.2679 122.95 31.8859C125.023 30.504 126.588 28.9798 127.645 27.3133C128.742 25.6062 129.291 23.8382 129.291 22.0092C129.291 20.8304 129.067 19.9566 128.62 19.3875C128.173 18.7779 127.543 18.473 126.73 18.473C125.511 18.473 124.271 19.0217 123.011 20.1192C121.792 21.1759 120.674 22.5985 119.658 24.3869C118.642 26.1753 117.808 28.1466 117.158 30.3008C116.548 32.455 116.244 34.6092 116.244 36.7633C116.244 39.6492 116.772 41.844 117.829 43.3479C118.926 44.8517 120.491 45.6037 122.523 45.6037C124.149 45.6037 125.633 45.1362 126.974 44.2014C128.356 43.2666 129.575 41.8237 130.632 39.8727H132.888C131.425 42.9617 129.575 45.3192 127.34 46.945C125.104 48.5301 122.523 49.3227 119.597 49.3227Z" fill="white"/>
<path d="M82.3597 49.3229C79.4333 49.3229 77.1368 48.2661 75.4704 46.1526C73.8039 44.039 72.9707 41.1329 72.9707 37.4342C72.9707 34.6703 73.4178 32.0081 74.312 29.4474C75.2062 26.8868 76.4255 24.6106 77.9701 22.619C79.5552 20.6274 81.3233 19.0626 83.2742 17.9245C85.2659 16.7458 87.3591 16.1565 89.5539 16.1565C91.383 16.1565 92.9884 16.5832 94.3704 17.4368C95.7523 18.2903 96.7278 19.469 97.2968 20.9729L96.5652 22.9239C95.9962 21.8671 95.2442 21.0542 94.3094 20.4852C93.4152 19.9161 92.3991 19.6316 91.261 19.6316C89.8384 19.6316 88.4768 20.099 87.1762 21.0339C85.9162 21.9687 84.7781 23.249 83.762 24.8748C82.7865 26.46 81.9939 28.289 81.3842 30.3619C80.8152 32.3942 80.5307 34.5484 80.5307 36.8245C80.5307 39.5477 80.9778 41.641 81.872 43.1042C82.7662 44.5268 84.0668 45.2381 85.7739 45.2381C86.9526 45.2381 88.0704 44.8519 89.1272 44.0797C90.1839 43.3074 91.0984 42.21 91.8707 40.7874L92.1755 42.0677C91.0781 44.4252 89.6962 46.2339 88.0297 47.4939C86.3633 48.7132 84.4733 49.3229 82.3597 49.3229ZM93.3949 32.8006L99.5526 10.5474C99.9997 9.12484 100.122 8.0071 99.9184 7.19419C99.7559 6.38129 99.1868 5.79193 98.2113 5.42613C97.2765 5.06032 95.8133 4.87742 93.8217 4.87742L94.4923 2.49967C97.6626 2.45903 100.508 2.23548 103.028 1.82903C105.588 1.42258 107.905 0.812902 109.978 0L100.833 32.8006H93.3949ZM98.6991 40.3606C98.252 41.9864 98.1707 43.2871 98.4552 44.2626C98.7804 45.2381 99.512 45.7258 100.65 45.7258C101.544 45.7258 102.377 45.4006 103.15 44.7503C103.922 44.0594 104.654 43.0635 105.345 41.7629L106.564 39.5071H108.942L107.478 42.2506C106.706 43.7139 105.832 44.9942 104.857 46.0916C103.922 47.1484 102.865 47.9613 101.687 48.5303C100.548 49.0994 99.2478 49.3839 97.7846 49.3839C95.8743 49.3839 94.3501 48.9571 93.212 48.1035C92.1146 47.2094 91.4439 45.9697 91.2001 44.3845C90.9562 42.7587 91.1188 40.889 91.6878 38.7755L93.3949 32.8006H100.833L98.6991 40.3606Z" fill="white"/>
<path d="M51.3431 32.8004L53.477 25.2404C53.9241 23.5333 53.985 22.2124 53.6599 21.2775C53.3753 20.3021 52.6641 19.8143 51.526 19.8143C50.6318 19.8143 49.7986 20.1598 49.0263 20.8508C48.2541 21.5011 47.5021 22.4969 46.7705 23.8382L45.6121 26.094H43.2344L44.6366 23.3504C45.4495 21.8466 46.3234 20.5662 47.2582 19.5095C48.1931 18.4527 49.2499 17.6398 50.4286 17.0708C51.6073 16.4611 52.9282 16.1562 54.3915 16.1562C56.3018 16.1562 57.8057 16.6033 58.9031 17.4975C60.0005 18.3511 60.6711 19.5704 60.915 21.1556C61.1995 22.7408 61.037 24.6104 60.4273 26.7646L58.7812 32.8004H51.3431ZM46.8924 48.4692L51.3431 32.8004H58.7812L54.3915 48.4692H46.8924ZM69.3895 28.6546C68.5766 28.6546 67.9466 28.4311 67.4995 27.984C67.0524 27.4962 66.8289 26.8866 66.8289 26.155C66.8289 25.464 66.9915 24.7933 67.3166 24.143C67.6418 23.4927 67.967 22.883 68.2921 22.314C68.6173 21.745 68.7799 21.2166 68.7799 20.7288C68.7799 19.9566 68.2515 19.5704 67.1947 19.5704C66.0973 19.5704 64.9186 20.0175 63.6586 20.9117C62.3986 21.8059 61.3418 23.005 60.4882 24.5088L60.1834 22.9237C61.4028 20.7695 62.8457 19.103 64.5121 17.9243C66.2192 16.7456 68.0279 16.1562 69.9382 16.1562C71.5641 16.1562 72.8241 16.583 73.7182 17.4366C74.6531 18.2901 75.1205 19.5095 75.1205 21.0946C75.1205 22.3546 74.836 23.574 74.267 24.7527C73.7386 25.9314 73.0476 26.8866 72.1941 27.6182C71.3405 28.3092 70.4057 28.6546 69.3895 28.6546Z" fill="white"/>
<path d="M17.1929 49.3229C13.7381 49.3229 10.71 48.571 8.10871 47.0671C5.50742 45.5633 3.49548 43.4497 2.0729 40.7265C0.690968 37.9626 0 34.711 0 30.9716C0 27.3542 0.650323 23.9604 1.95097 20.79C3.25161 17.5791 5.04 14.7542 7.31613 12.3155C9.59226 9.83617 12.2139 7.90552 15.181 6.52358C18.1887 5.14165 21.3794 4.45068 24.7529 4.45068C28.2484 4.45068 31.2765 5.20262 33.8371 6.70649C36.3977 8.21036 38.3894 10.3239 39.8119 13.0471C41.2345 15.7704 41.9458 19.0017 41.9458 22.741C41.9458 26.3584 41.2955 29.7726 39.9948 32.9836C38.6942 36.1946 36.8855 39.0194 34.5687 41.4581C32.2926 43.8968 29.671 45.8275 26.7039 47.25C23.7368 48.632 20.5665 49.3229 17.1929 49.3229ZM17.3148 47.0062C19.469 47.0062 21.5216 46.3152 23.4726 44.9333C25.4235 43.5107 27.151 41.58 28.6548 39.1413C30.1587 36.7026 31.3374 33.9387 32.191 30.8497C33.0852 27.72 33.5323 24.4278 33.5323 20.9729C33.5323 17.9652 33.1868 15.4046 32.4958 13.291C31.8048 11.1775 30.7887 9.57197 29.4474 8.47456C28.1468 7.33649 26.5413 6.76746 24.631 6.76746C22.4768 6.76746 20.4242 7.47875 18.4732 8.90133C16.5223 10.2833 14.7948 12.2139 13.291 14.6933C11.7871 17.132 10.5881 19.9162 9.69387 23.0458C8.84032 26.1755 8.41355 29.4678 8.41355 32.9226C8.41355 37.3529 9.18581 40.8078 10.7303 43.2871C12.2748 45.7665 14.4697 47.0062 17.3148 47.0062Z" fill="white"/>
<path d="M208.513 69.5693V63.5861C208.513 62.8085 208.269 62.1677 207.779 61.6637C207.289 61.1597 206.656 60.9077 205.878 60.9077C205.36 60.9077 204.899 61.0229 204.496 61.2533C204.093 61.4837 203.776 61.8005 203.545 62.2037C203.315 62.6069 203.2 63.0677 203.2 63.5861L202.401 63.1325C202.401 62.3549 202.573 61.6637 202.919 61.0589C203.265 60.4541 203.747 59.9789 204.366 59.6333C204.985 59.2733 205.684 59.0933 206.461 59.0933C207.239 59.0933 207.923 59.2877 208.513 59.6765C209.118 60.0653 209.593 60.5765 209.939 61.2101C210.285 61.8293 210.457 62.4917 210.457 63.1973V69.5693H208.513ZM201.256 69.5693V59.3093H203.2V69.5693H201.256Z" fill="white"/>
<path d="M196.878 69.5694V59.3094H198.822V69.5694H196.878ZM197.85 57.2574C197.49 57.2574 197.195 57.1422 196.965 56.9118C196.734 56.667 196.619 56.3646 196.619 56.0046C196.619 55.659 196.734 55.371 196.965 55.1406C197.195 54.8958 197.49 54.7734 197.85 54.7734C198.21 54.7734 198.506 54.8958 198.736 55.1406C198.966 55.371 199.082 55.659 199.082 56.0046C199.082 56.3646 198.966 56.667 198.736 56.9118C198.506 57.1422 198.21 57.2574 197.85 57.2574Z" fill="white"/>
<path d="M192.713 69.5694V63.5862C192.713 62.8086 192.468 62.1678 191.978 61.6638C191.489 61.1598 190.855 60.9078 190.077 60.9078C189.559 60.9078 189.098 61.023 188.695 61.2534C188.292 61.4838 187.975 61.8006 187.745 62.2038C187.514 62.607 187.399 63.0678 187.399 63.5862L186.6 63.1326C186.6 62.355 186.773 61.6638 187.118 61.059C187.464 60.4542 187.946 59.979 188.565 59.6334C189.185 59.2734 189.883 59.0934 190.661 59.0934C191.438 59.0934 192.122 59.2662 192.713 59.6118C193.317 59.9574 193.793 60.4398 194.138 61.059C194.484 61.6782 194.657 62.391 194.657 63.1974V69.5694H192.713ZM185.455 69.5694V54.147H187.399V69.5694H185.455Z" fill="white"/>
<path d="M179.512 69.5691V55.0107H181.456V69.5691H179.512ZM176.984 61.0803V59.3091H183.983V61.0803H176.984Z" fill="white"/>
<path d="M173.558 69.5694V59.3094H175.502V69.5694H173.558ZM174.53 57.2574C174.17 57.2574 173.875 57.1422 173.644 56.9118C173.414 56.667 173.299 56.3646 173.299 56.0046C173.299 55.659 173.414 55.371 173.644 55.1406C173.875 54.8958 174.17 54.7734 174.53 54.7734C174.89 54.7734 175.185 54.8958 175.416 55.1406C175.646 55.371 175.761 55.659 175.761 56.0046C175.761 56.3646 175.646 56.667 175.416 56.9118C175.185 57.1422 174.89 57.2574 174.53 57.2574Z" fill="white"/>
<path d="M160.875 69.5696L156.814 59.3096H158.845L161.782 67.3016H161.134L164.05 59.3096H165.174L168.09 67.3016H167.442L170.379 59.3096H172.41L168.37 69.5696H167.226L164.266 61.8152H164.979L161.998 69.5696H160.875Z" fill="white"/>
<path d="M147.598 75.0559L143.148 64.7095H145.308L148.613 72.8095H147.922L151.4 64.7095H153.56L148.764 75.0559H147.598ZM144.66 79.2679L147.684 73.0687L148.764 75.0559L146.82 79.2679H144.66Z" fill="white"/>
<path d="M138.285 74.9695V60.4111H140.229V74.9695H138.285ZM135.758 66.4807V64.7095H142.756V66.4807H135.758Z" fill="white"/>
<path d="M132.331 74.9693V64.7093H134.275V74.9693H132.331ZM133.303 62.6573C132.943 62.6573 132.648 62.5421 132.418 62.3117C132.187 62.0669 132.072 61.7645 132.072 61.4045C132.072 61.0589 132.187 60.7709 132.418 60.5405C132.648 60.2957 132.943 60.1733 133.303 60.1733C133.663 60.1733 133.959 60.2957 134.189 60.5405C134.419 60.7709 134.535 61.0589 134.535 61.4045C134.535 61.7645 134.419 62.0669 134.189 62.3117C133.959 62.5421 133.663 62.6573 133.303 62.6573Z" fill="white"/>
<path d="M124.072 74.9692V64.7092H126.016V74.9692H124.072ZM126.016 69.1156L125.282 68.7916C125.282 67.4812 125.584 66.4372 126.189 65.6596C126.794 64.882 127.665 64.4932 128.803 64.4932C129.321 64.4932 129.789 64.5868 130.207 64.774C130.624 64.9468 131.013 65.242 131.373 65.6596L130.099 66.9772C129.883 66.7468 129.645 66.5812 129.386 66.4804C129.127 66.3796 128.824 66.3292 128.479 66.3292C127.759 66.3292 127.168 66.5596 126.707 67.0204C126.247 67.4812 126.016 68.1796 126.016 69.1156Z" fill="white"/>
<path d="M116.296 75.1852C115.36 75.1852 114.511 74.9548 113.748 74.494C112.984 74.0188 112.38 73.378 111.933 72.5716C111.501 71.7652 111.285 70.858 111.285 69.85C111.285 68.842 111.501 67.9348 111.933 67.1284C112.38 66.322 112.977 65.6812 113.726 65.206C114.489 64.7308 115.346 64.4932 116.296 64.4932C117.074 64.4932 117.765 64.6588 118.37 64.99C118.989 65.3068 119.486 65.7532 119.86 66.3292C120.235 66.8908 120.444 67.546 120.487 68.2948V71.3836C120.444 72.118 120.235 72.7732 119.86 73.3492C119.5 73.9252 119.011 74.3788 118.392 74.71C117.787 75.0268 117.088 75.1852 116.296 75.1852ZM116.62 73.3492C117.585 73.3492 118.363 73.0252 118.953 72.3772C119.544 71.7148 119.839 70.8724 119.839 69.85C119.839 69.1444 119.702 68.5324 119.428 68.014C119.169 67.4812 118.795 67.0708 118.305 66.7828C117.816 66.4804 117.247 66.3292 116.599 66.3292C115.951 66.3292 115.375 66.4804 114.871 66.7828C114.381 67.0852 113.992 67.5028 113.704 68.0356C113.431 68.554 113.294 69.1516 113.294 69.8284C113.294 70.5196 113.431 71.1316 113.704 71.6644C113.992 72.1828 114.388 72.5932 114.892 72.8956C115.396 73.198 115.972 73.3492 116.62 73.3492ZM119.709 74.9692V72.2044L120.076 69.6988L119.709 67.2148V64.7092H121.675V74.9692H119.709Z" fill="white"/>
<path d="M107.576 74.9693V59.5469H109.52V74.9693H107.576Z" fill="white"/>
<path d="M100.287 75.1851C99.2066 75.1851 98.2058 74.9907 97.2842 74.6019C96.3626 74.1987 95.5562 73.6443 94.865 72.9387C94.1882 72.2331 93.6626 71.4123 93.2882 70.4763C92.9138 69.5403 92.7266 68.5395 92.7266 67.4739C92.7266 66.3939 92.9138 65.3859 93.2882 64.4499C93.6626 63.5139 94.1882 62.7003 94.865 62.0091C95.5562 61.3035 96.3554 60.7563 97.2626 60.3675C98.1842 59.9643 99.185 59.7627 100.265 59.7627C101.446 59.7627 102.483 59.9643 103.375 60.3675C104.268 60.7707 105.06 61.3179 105.751 62.0091L104.347 63.4131C103.872 62.8803 103.289 62.4627 102.598 62.1603C101.921 61.8579 101.143 61.7067 100.265 61.7067C99.473 61.7067 98.7458 61.8507 98.0834 62.1387C97.421 62.4123 96.845 62.8083 96.3554 63.3267C95.8658 63.8451 95.4842 64.4571 95.2106 65.1627C94.9514 65.8683 94.8218 66.6387 94.8218 67.4739C94.8218 68.3091 94.9514 69.0795 95.2106 69.7851C95.4842 70.4907 95.8658 71.1027 96.3554 71.6211C96.845 72.1395 97.421 72.5427 98.0834 72.8307C98.7458 73.1043 99.473 73.2411 100.265 73.2411C101.201 73.2411 102.015 73.0899 102.706 72.7875C103.397 72.4707 103.98 72.0459 104.455 71.5131L105.859 72.8955C105.168 73.6155 104.355 74.1771 103.419 74.5803C102.497 74.9835 101.453 75.1851 100.287 75.1851Z" fill="white"/>
</svg>
